# xmcd
#
# Track frame offsets:
#	150
#	16842
#	31387
#	44529
#	60706
#	74410
#	93690
#	110342
#	130094
#	144161
#	161815
#	175639
#	191439
#	207976
#	225461
#	244377
#	254504
#	271733
#	290560
#	308972
#
# Disc length: 4356 seconds
#
# Revision: 2
# Processed by: cddbd v1.4PL0 Copyright (c) Steve Scherf et al.
# Submitted via: audiograbber 1.80
#
DISCID=22110214
DTITLE=Kenny Rogers - Through The Years - A Retrospect  Disc 2 Of 4
DYEAR=1900
DGENRE=
TTITLE0=Lucille
TTITLE1=Daytime Friends
TTITLE2=Love Or Something Like It
TTITLE3=The Gambler
TTITLE4=Every Time Two Fools Collide
TTITLE5=She Believes In Me 
TTITLE6=You Decorated My Life
TTITLE7=Coward Of The County
TTITLE8=All I Ever Need Is You 
TTITLE9=Lady
TTITLE10=What Are We Doin' In Love 
TTITLE11=I Don't Need You
TTITLE12=Love Will Turn You Around
TTITLE13=We've Got Tonight
TTITLE14=Islands In the Stream
TTITLE15=Crazy
TTITLE16=Real Love
TTITLE17=Morning Desire
TTITLE18=Tomb Of The Unknown Love
TTITLE19=Make No Mistake, She's Mine 
EXTD=Please List this
EXTT0=
EXTT1=
EXTT2=
EXTT3=
EXTT4=
EXTT5=
EXTT6=
EXTT7=
EXTT8=
EXTT9=
EXTT10=
EXTT11=
EXTT12=
EXTT13=
EXTT14=
EXTT15=
EXTT16=
EXTT17=
EXTT18=
EXTT19=
PLAYORDER=
